Coordinates
nRows=126
nColumns=2
inDegrees=yes
endheader
time	ankle_angle_r	
2.9375	 -0.408592	
3	 -0.363293	
3.0625	 -0.383562	
3.125	 -0.383238	
3.1875	 -0.369403	
3.25	 -0.379319	
3.3125	 -0.377824	
3.375	 -0.378522	
3.4375	 -0.388887	
3.5	 -0.381544	
3.5625	 -0.355559	
3.625	 -0.341271	
3.6875	 -0.362978	
3.75	 -0.386138	
3.8125	 -0.391022	
3.875	 -0.397845	
3.9375	 -0.392781	
4	 -0.363390	
4.0625	 -0.329198	
4.125	 -0.333648	
4.1875	 -0.376307	
4.25	 -0.382441	
4.3125	 -0.356729	
4.375	 -0.353673	
4.4375	 -0.353469	
4.5	 -0.350060	
4.5625	 -0.362151	
4.625	 -0.380573	
4.6875	 -0.380069	
4.75	 -0.354236	
4.8125	 -0.348605	
4.875	 -0.359493	
4.9375	 -0.354479	
5	 -0.370218	
5.0625	 -0.394353	
5.125	 -0.401395	
5.1875	 -0.414778	
5.25	 -0.421844	
5.3125	 -0.422868	
5.375	 -0.412051	
5.4375	 -0.385577	
5.5	 -0.382634	
5.5625	 -0.389236	
5.625	 -0.403682	
5.6875	 -0.434347	
5.75	 -0.431639	
5.8125	 -0.411903	
5.875	 -0.407390	
5.9375	 -0.399766	
6	 -0.377655	
6.0625	 -0.341714	
6.125	 -0.338500	
6.1875	 -0.366764	
6.25	 -0.372319	
6.3125	 -0.372528	
6.375	 -0.358013	
6.4375	 -0.310013	
6.5	 -0.295914	
6.5625	 -0.325386	
6.625	 -0.336140	
6.6875	 -0.328928	
6.75	 -0.339623	
6.8125	 -0.371424	
6.875	 -0.386692	
6.9375	 -0.369442	
7	 -0.363082	
7.0625	 -0.371612	
7.125	 -0.367502	
7.1875	 -0.362441	
7.25	 -0.371170	
7.3125	 -0.381276	
7.375	 -0.372853	
7.4375	 -0.353266	
7.5	 -0.339363	
7.5625	 -0.344033	
7.625	 -0.362719	
7.6875	 -0.376047	
7.75	 -0.386990	
7.8125	 -0.380295	
7.875	 -0.360180	
7.9375	 -0.353961	
8	 -0.336736	
8.0625	 -0.323844	
8.125	 -0.343852	
8.1875	 -0.362590	
8.25	 -0.370323	
8.3125	 -0.373915	
8.375	 -0.371471	
8.4375	 -0.356437	
8.5	 -0.337276	
8.5625	 -0.357989	
8.625	 -0.394199	
8.6875	 -0.393613	
8.75	 -0.387437	
8.8125	 -0.387276	
8.875	 -0.379517	
8.9375	 -0.384807	
9	 -0.391274	
9.0625	 -0.396619	
9.125	 -0.416392	
9.1875	 -0.424828	
9.25	 -0.422107	
9.3125	 -0.412850	
9.375	 -0.387212	
9.4375	 -0.369189	
9.5	 -0.372306	
9.5625	 -0.397622	
9.625	 -0.424914	
9.6875	 -0.434603	
9.75	 -0.441131	
9.8125	 -0.424738	
9.875	 -0.392693	
9.9375	 -0.381986	
10	 -0.378068	
10.0625	 -0.394189	
10.125	 -0.425592	
10.1875	 -0.428848	
10.25	 -0.424340	
10.3125	 -0.416827	
10.375	 -0.393546	
10.4375	 -0.378410	
10.5	 -0.379822	
10.5625	 -0.401901	
10.625	 -0.422554	
10.6875	 -0.425020	
10.75	 -0.442556	
